<svg width="194" height="194" viewBox="0 0 194 194" fill="none" xmlns="http://www.w3.org/2000/svg">
<circle cx="97" cy="97" r="71.5" fill="#2489FF" fill-opacity="0.3" stroke="white"/>
<circle cx="97" cy="97" r="96.5" fill="#2489FF" fill-opacity="0.3" stroke="white"/>
<circle cx="97" cy="97" r="49.5" fill="#2489FF" fill-opacity="0.3" stroke="white"/>
<path d="M105.494 92.9659L95.954 85.9659C95.2089 85.4203 94.3272 85.0917 93.4068 85.0166C92.4863 84.9414 91.563 85.1227 90.7393 85.5403C89.9156 85.9578 89.2236 86.5954 88.7401 87.3822C88.2565 88.169 88.0004 89.0744 88 89.9979V103.998C88.0002 104.922 88.2563 105.828 88.7401 106.615C89.2238 107.402 89.9162 108.04 90.7404 108.457C91.5646 108.875 92.4884 109.056 93.4092 108.98C94.3301 108.905 95.212 108.575 95.957 108.029L105.497 101.029C106.13 100.565 106.645 99.9575 107 99.257C107.355 98.5565 107.54 97.7822 107.54 96.9969C107.54 96.2116 107.355 95.4374 107 94.7369C106.645 94.0364 106.13 93.4293 105.497 92.9649L105.494 92.9659ZM104.31 99.4159L94.77 106.416C94.323 106.743 93.7944 106.939 93.2426 106.984C92.6908 107.029 92.1374 106.92 91.6436 106.67C91.1498 106.419 90.7349 106.037 90.4448 105.566C90.1547 105.094 90.0008 104.552 90 103.998V89.9979C89.9945 89.4433 90.1455 88.8983 90.4358 88.4256C90.7261 87.953 91.1438 87.5718 91.641 87.3259C92.0639 87.1108 92.5315 86.9984 93.006 86.9979C93.6419 87.0003 94.2602 87.2068 94.77 87.5869L104.31 94.5869C104.689 94.8656 104.998 95.2297 105.211 95.6498C105.423 96.0698 105.534 96.5341 105.534 97.0049C105.534 97.4758 105.423 97.94 105.211 98.36C104.998 98.7801 104.689 99.1442 104.31 99.4229V99.4159Z" fill="white"/>
<path d="M93.5 86.5L89.5 89V105.5L93.5 107.5L105.5 99V95L93.5 86.5Z" fill="white"/>
<path d="M105.494 92.9659L95.954 85.9659C95.2089 85.4203 94.3272 85.0917 93.4068 85.0166C92.4863 84.9414 91.563 85.1227 90.7393 85.5403C89.9156 85.9578 89.2236 86.5954 88.7401 87.3822C88.2565 88.169 88.0004 89.0744 88 89.9979V103.998C88.0002 104.922 88.2563 105.828 88.7401 106.615C89.2238 107.402 89.9162 108.04 90.7404 108.457C91.5646 108.875 92.4884 109.056 93.4092 108.98C94.3301 108.905 95.212 108.575 95.957 108.029L105.497 101.029C106.13 100.565 106.645 99.9575 107 99.257C107.355 98.5565 107.54 97.7822 107.54 96.9969C107.54 96.2116 107.355 95.4374 107 94.7369C106.645 94.0364 106.13 93.4293 105.497 92.9649L105.494 92.9659ZM104.31 99.4159L94.77 106.416C94.323 106.743 93.7944 106.939 93.2426 106.984C92.6908 107.029 92.1374 106.92 91.6436 106.67C91.1498 106.419 90.7349 106.037 90.4448 105.566C90.1547 105.094 90.0008 104.552 90 103.998V89.9979C89.9945 89.4433 90.1455 88.8983 90.4358 88.4256C90.7261 87.953 91.1438 87.5718 91.641 87.3259C92.0639 87.1108 92.5315 86.9984 93.006 86.9979C93.6419 87.0003 94.2602 87.2068 94.77 87.5869L104.31 94.5869C104.689 94.8656 104.998 95.2297 105.211 95.6498C105.423 96.0698 105.534 96.5341 105.534 97.0049C105.534 97.4758 105.423 97.94 105.211 98.36C104.998 98.7801 104.689 99.1442 104.31 99.4229V99.4159Z" stroke="white"/>
<path d="M93.5 86.5L89.5 89V105.5L93.5 107.5L105.5 99V95L93.5 86.5Z" stroke="white"/>
</svg>
