<svg width="20" height="10" viewBox="0 0 20 10" fill="none" xmlns="http://www.w3.org/2000/svg">
<path d="M19.375 0.5H0.625C0.556153 0.5 0.5 0.556154 0.5 0.625C0.500008 0.693841 0.556159 0.75 0.625 0.75H19.375C19.4438 0.75 19.5 0.693814 19.5 0.625C19.5 0.556152 19.4438 0.5 19.375 0.5Z" fill="white" stroke="white"/>
<path d="M19.375 4.875H0.625C0.556155 4.875 0.5 4.93115 0.5 5C0.500008 5.06884 0.55616 5.125 0.625 5.125H19.375C19.4438 5.125 19.5 5.06881 19.5 5C19.5 4.93115 19.4438 4.875 19.375 4.875Z" fill="white" stroke="white"/>
<path d="M13.125 9.25H0.625C0.556062 9.25 0.49999 9.30626 0.5 9.375C0.500008 9.44384 0.556163 9.5 0.625 9.5H13.125C13.1938 9.5 13.25 9.44384 13.25 9.375C13.25 9.30615 13.1938 9.25 13.125 9.25Z" fill="white" stroke="white"/>
</svg>
