<svg width="170" height="25" viewBox="0 0 170 25" fill="none" xmlns="http://www.w3.org/2000/svg">
<path d="M67.2638 9.486L66.1658 7.776L69.3878 5.364H70.8818V18H68.8118V8.316L67.2638 9.486ZM77.6423 21.744L76.0403 21.15L81.9803 5.202L83.5823 5.796L77.6423 21.744ZM88.3575 9.486L87.2595 7.776L90.4815 5.364H91.9755V18H89.9055V8.316L88.3575 9.486ZM102.446 18H94.5256V16.344C95.9776 14.928 96.9796 13.902 97.5316 13.266C99.0196 11.562 99.7636 10.128 99.7636 8.964C99.7636 8.448 99.6256 8.046 99.3496 7.758C99.0736 7.47 98.6776 7.326 98.1616 7.326C97.2376 7.326 96.6316 7.89 96.3436 9.018L94.6156 8.244C94.7836 7.32 95.2036 6.594 95.8756 6.066C96.5596 5.526 97.3996 5.256 98.3956 5.256C99.5236 5.256 100.4 5.58 101.024 6.228C101.648 6.864 101.96 7.638 101.96 8.55C101.96 9.198 101.822 9.888 101.546 10.62C101.27 11.328 100.952 11.946 100.592 12.474C100.22 13.026 99.7816 13.566 99.2776 14.094C98.8456 14.574 98.4496 14.982 98.0896 15.318C97.9096 15.486 97.6156 15.738 97.2076 16.074H102.446V18Z" fill="#35465E"/>
<path d="M128.77 12.5H167.77M159.27 1L168.27 12.5L159.27 24" stroke="#35465E" stroke-width="2" stroke-linecap="round"/>
<path d="M40.7698 12.5H1.76978M10.2698 1L1.26978 12.5L10.2698 24" stroke="#35465E" stroke-width="2" stroke-linecap="round"/>
</svg>
