<svg width="20" height="17" viewBox="0 0 20 17" fill="none" xmlns="http://www.w3.org/2000/svg">
<path d="M14.8193 16.0498C14.8232 16.0522 14.83 16.0561 14.8379 16.0615C14.8301 16.0562 14.8232 16.0522 14.8193 16.0498ZM14.8193 16.0498C14.8174 16.0486 14.8154 16.0475 14.8145 16.0469L14.8135 16.0459L14.8193 16.0498ZM18.6611 0.5C18.9461 0.50009 19.1637 0.608303 19.3037 0.779297V0.780273C19.4655 0.978061 19.5539 1.30422 19.4639 1.74902L16.6904 15.4463C16.5572 16.1042 16.1394 16.4199 15.7002 16.4199C15.4575 16.4197 15.1796 16.3269 14.9004 16.1104L14.8994 16.1094L14.8936 16.1045L14.8701 16.0859L14.8691 16.085C14.8661 16.0825 14.8632 16.0803 14.8604 16.0781L11.7188 13.5479L11.3828 13.2783L11.0664 13.5703L8.89453 15.5693C8.63582 15.8074 8.36786 15.9254 8.11523 15.9492L8.6543 15.5449L8.77734 15.4434L10.8203 13.5625L11.248 13.1689L10.7959 12.8047L9.42285 11.6992L8.81152 11.207L8.62402 11.9688L7.86914 15.0254L7.65723 15.8789C7.60369 15.8568 7.55169 15.8302 7.50098 15.7979L7.86328 14.3301L8.67676 11.0352L8.69824 10.9971L12.917 6.51465L12.3252 5.72656L5.5498 9.1875L5.16113 9.38574L5.30566 9.79785L6.90625 14.375L7.36816 15.6982C7.20591 15.5556 7.06638 15.3541 6.97363 15.0889L5.07422 9.65918L4.98926 9.41406L4.74023 9.34277L1.22852 8.33789L1.22461 8.33691H1.22559C0.862474 8.22127 0.690563 8.08047 0.607422 7.98145L1.29785 8.17969L4.85742 9.19727L5.04688 9.25195L5.22168 9.16211L15.2559 4.03613C15.2927 4.01728 15.338 4.02741 15.3633 4.06055C15.3884 4.09408 15.3861 4.14144 15.3574 4.17188L9.25684 10.6543L8.88672 11.0469L9.30762 11.3857L11.4316 13.0967L11.4492 13.1104L15.0029 15.9727L15.0117 15.9785C15.1879 16.1142 15.4315 16.2489 15.7002 16.249C16.0815 16.249 16.2895 15.9755 16.374 15.8252C16.464 15.6651 16.5045 15.4962 16.5215 15.4131V15.4121L19.2959 1.71484C19.3288 1.55219 19.3368 1.40586 19.3223 1.27734C19.3097 1.16673 19.2738 1.01443 19.1709 0.888672H19.1699C19.0421 0.732719 18.8705 0.696431 18.8262 0.6875C18.7913 0.68047 18.7578 0.676953 18.7295 0.674805L18.6611 0.671875C18.5361 0.671875 18.3751 0.696208 18.1807 0.770508L1.25684 7.23145L0.570312 7.49316C0.572969 7.48906 0.575272 7.48462 0.578125 7.48047C0.64939 7.37678 0.812324 7.21754 1.19043 7.07324L18.1201 0.610352C18.3209 0.533603 18.5027 0.5 18.6611 0.5Z" fill="white" stroke="white"/>
</svg>
