<svg width="27" height="29" viewBox="0 0 27 29" fill="none" xmlns="http://www.w3.org/2000/svg">
<g filter="url(#filter0_d_35_682)">
<mask id="path-1-inside-1_35_682" fill="white">
<path d="M22.146 11.5885C22.7427 6.56601 21.8593 3.39517 20.266 1.96101L20.2668 1.96017C17.6952 -0.488993 9.01016 -0.851493 5.9335 2.07017C4.55183 3.49934 4.06516 5.59684 4.01183 8.19351C3.9585 10.791 3.89516 15.6568 8.42933 16.9768H8.4335L8.42933 18.9927C8.42933 18.9927 8.3985 19.8093 8.92016 19.9735C9.51683 20.1668 9.78683 19.7877 11.6427 17.571C14.746 17.8402 17.1293 17.2235 17.4002 17.1335C18.0268 16.9235 21.5727 16.4543 22.146 11.5885ZM11.9485 16.1527C11.9485 16.1527 9.98433 18.6018 9.3735 19.2377C9.1735 19.4443 8.95433 19.4252 8.95766 19.0152C8.95766 18.746 8.97266 15.6685 8.97266 15.6685C5.1285 14.5668 5.35516 10.4235 5.39683 8.25601C5.4385 6.08767 5.83516 4.31184 7.00516 3.11601C9.70433 0.585174 17.3185 1.15101 19.2585 2.97434C21.6302 5.07684 20.786 11.0168 20.791 11.2193C20.3035 15.281 17.4302 15.5385 16.9018 15.7143C16.676 15.7893 14.5802 16.3285 11.9485 16.1527V16.1527Z"/>
</mask>
<path d="M22.146 11.5885C22.7427 6.56601 21.8593 3.39517 20.266 1.96101L20.2668 1.96017C17.6952 -0.488993 9.01016 -0.851493 5.9335 2.07017C4.55183 3.49934 4.06516 5.59684 4.01183 8.19351C3.9585 10.791 3.89516 15.6568 8.42933 16.9768H8.4335L8.42933 18.9927C8.42933 18.9927 8.3985 19.8093 8.92016 19.9735C9.51683 20.1668 9.78683 19.7877 11.6427 17.571C14.746 17.8402 17.1293 17.2235 17.4002 17.1335C18.0268 16.9235 21.5727 16.4543 22.146 11.5885ZM11.9485 16.1527C11.9485 16.1527 9.98433 18.6018 9.3735 19.2377C9.1735 19.4443 8.95433 19.4252 8.95766 19.0152C8.95766 18.746 8.97266 15.6685 8.97266 15.6685C5.1285 14.5668 5.35516 10.4235 5.39683 8.25601C5.4385 6.08767 5.83516 4.31184 7.00516 3.11601C9.70433 0.585174 17.3185 1.15101 19.2585 2.97434C21.6302 5.07684 20.786 11.0168 20.791 11.2193C20.3035 15.281 17.4302 15.5385 16.9018 15.7143C16.676 15.7893 14.5802 16.3285 11.9485 16.1527V16.1527Z" fill="white"/>
<path d="M22.146 11.5885L0.961629 9.07183L0.960425 9.08197L0.95923 9.09211L22.146 11.5885ZM20.266 1.96101L5.17745 -13.1203L-10.7138 2.7785L5.99383 17.8171L20.266 1.96101ZM20.2668 1.96017L35.3554 17.0415L50.8055 1.58404L34.9794 -13.4882L20.2668 1.96017ZM5.9335 2.07017L-8.75674 -13.3994L-9.08732 -13.0855L-9.40418 -12.7577L5.9335 2.07017ZM4.01183 8.19351L-17.317 7.75543L-17.317 7.75557L4.01183 8.19351ZM8.42933 16.9768L2.46626 37.4598L5.38717 38.3102H8.42933V16.9768ZM8.4335 16.9768L29.7668 17.0209L29.811 -4.35649H8.4335V16.9768ZM8.42933 18.9927L29.7475 19.7976L29.7618 19.4173L29.7626 19.0368L8.42933 18.9927ZM8.92016 19.9735L15.4961 -0.321041L15.4102 -0.348866L15.3241 -0.375963L8.92016 19.9735ZM11.6427 17.571L13.4861 -3.68253L2.41737 -4.64257L-4.71477 3.87628L11.6427 17.571ZM17.4002 17.1335L24.1277 37.3783L24.1532 37.3698L24.1786 37.3613L17.4002 17.1335ZM11.9485 16.1527M9.3735 19.2377L24.7037 34.0733L24.7308 34.0453L24.7579 34.0171L9.3735 19.2377ZM8.95766 19.0152L30.2903 19.1886L30.291 19.1019V19.0152H8.95766ZM8.97266 15.6685L30.3057 15.7725L30.3845 -0.387344L14.8498 -4.8393L8.97266 15.6685ZM5.39683 8.25601L26.7262 8.66603L26.7262 8.66587L5.39683 8.25601ZM7.00516 3.11601L-7.5867 -12.4464L-7.92208 -12.1319L-8.24359 -11.8033L7.00516 3.11601ZM19.2585 2.97434L4.64822 18.5195L4.87439 18.732L5.10665 18.9379L19.2585 2.97434ZM20.791 11.2193L41.9723 13.7616L42.1558 12.2324L42.1178 10.6928L20.791 11.2193ZM16.9018 15.7143L23.6256 35.9604L23.6384 35.9561L16.9018 15.7143ZM11.9485 16.1527M22.146 11.5885L43.3304 14.1052C44.1117 7.52861 44.279 -5.12736 34.5382 -13.8951L20.266 1.96101L5.99383 17.8171C2.444 14.6219 1.43934 11.1584 1.17444 9.93154C0.886522 8.59804 1.06928 8.16569 0.961629 9.07183L22.146 11.5885ZM20.266 1.96101L35.3545 17.0424L35.3554 17.0415L20.2668 1.96017L5.17829 -13.1212L5.17745 -13.1203L20.266 1.96101ZM20.2668 1.96017L34.9794 -13.4882C30.6523 -17.6092 25.7225 -19.305 22.9717 -20.0529C19.7591 -20.9263 16.5073 -21.2982 13.5235 -21.3309C10.5449 -21.3636 7.14271 -21.0659 3.6816 -20.1553C0.48219 -19.3136 -4.42185 -17.5159 -8.75674 -13.3994L5.9335 2.07017L20.6237 17.5398C17.8272 20.1954 15.1625 20.9428 14.5372 21.1073C13.6502 21.3406 13.1569 21.3343 13.0555 21.3332C12.9491 21.332 12.543 21.3273 11.7783 21.1194C11.3763 21.0101 10.6395 20.7804 9.69314 20.3192C8.80111 19.8845 7.23266 19.007 5.55431 17.4086L20.2668 1.96017ZM5.9335 2.07017L-9.40418 -12.7577C-16.5239 -5.39325 -17.2313 3.5844 -17.317 7.75543L4.01183 8.19351L25.3407 8.63159C25.3452 8.413 25.3621 9.27621 24.9474 10.6917C24.4874 12.2621 23.4529 14.6413 21.2712 16.8981L5.9335 2.07017ZM4.01183 8.19351L-17.317 7.75557C-17.3366 8.70867 -17.595 13.9959 -15.824 19.5478C-13.655 26.347 -8.14881 34.3695 2.46626 37.4598L8.42933 16.9768L14.3924 -3.50615C16.8419 -2.79305 19.3909 -1.33262 21.4836 0.931043C23.4542 3.06262 24.3899 5.21831 24.8245 6.58068C25.507 8.72024 25.3069 10.2758 25.3407 8.63144L4.01183 8.19351ZM8.42933 16.9768V38.3102H8.4335V16.9768V-4.35649H8.42933V16.9768ZM8.4335 16.9768L-12.8998 16.9328L-12.904 18.9486L8.42933 18.9927L29.7626 19.0368L29.7668 17.0209L8.4335 16.9768ZM8.42933 18.9927C-12.8888 18.1878 -12.8891 18.1945 -12.8893 18.2013C-12.8894 18.2035 -12.8897 18.2103 -12.8898 18.2148C-12.8901 18.2239 -12.8905 18.233 -12.8908 18.2421C-12.8914 18.2604 -12.8921 18.2788 -12.8927 18.2975C-12.8939 18.3347 -12.895 18.3727 -12.8961 18.4115C-12.8982 18.4889 -12.9 18.5695 -12.9014 18.6531C-12.9041 18.8198 -12.9052 19.0005 -12.9037 19.1936C-12.9007 19.5758 -12.8875 20.0289 -12.8537 20.538C-12.7908 21.4842 -12.6355 22.9627 -12.1882 24.7105C-11.5962 27.0238 -8.63223 36.8146 2.51625 40.323L8.92016 19.9735L15.3241 -0.375963C25.9509 2.96826 28.6694 12.2687 29.1464 14.1325C29.5362 15.6557 29.6666 16.9197 29.719 17.7077C29.7476 18.1377 29.7591 18.5257 29.7617 18.8625C29.763 19.0331 29.7621 19.196 29.7596 19.3507C29.7583 19.4282 29.7566 19.5042 29.7546 19.5786C29.7536 19.6158 29.7525 19.6526 29.7513 19.6891C29.7507 19.7073 29.7501 19.7255 29.7494 19.7436C29.7491 19.7526 29.7488 19.7616 29.7485 19.7706C29.7483 19.7751 29.7481 19.7819 29.748 19.7841C29.7477 19.7908 29.7475 19.7976 8.42933 18.9927ZM8.92016 19.9735L2.34427 40.2681C5.15806 41.1798 10.0156 42.1217 15.6729 40.3619C20.3715 38.9003 23.3379 36.227 24.3337 35.3013C25.4729 34.2424 26.37 33.1949 26.7031 32.8071C27.1142 32.3282 27.6329 31.7043 28.0001 31.2657L11.6427 17.571L-4.71477 3.87628C-5.27551 4.54605 -5.48652 4.80078 -5.66656 5.01043C-5.92474 5.31109 -5.48037 4.76191 -4.71524 4.05068C-4.09348 3.47273 -1.42246 0.996465 2.99966 -0.37912C8.38052 -2.05294 12.9806 -1.1361 15.4961 -0.321041L8.92016 19.9735ZM11.6427 17.571L9.79924 38.8246C16.1252 39.3732 21.4277 38.2755 24.1277 37.3783L17.4002 17.1335L10.6727 -3.11129C11.0694 -3.24311 11.3746 -3.33088 11.4986 -3.36607C11.6621 -3.41249 11.7963 -3.44809 11.8958 -3.47363C12.096 -3.52504 12.2517 -3.5605 12.3636 -3.58441C12.5881 -3.63241 12.742 -3.65654 12.844 -3.66975C13.017 -3.69215 13.2125 -3.70626 13.4861 -3.68253L11.6427 17.571ZM17.4002 17.1335L24.1786 37.3613C20.9778 38.4339 27.7637 36.6799 32.3188 33.376C38.3328 29.0138 42.3714 22.2437 43.3328 14.0849L22.146 11.5885L0.95923 9.09211C1.11587 7.76276 1.59021 5.86208 2.7809 3.80215C3.98437 1.72011 5.58188 0.0605 7.26741 -1.16206C8.88329 -2.33411 10.3735 -2.958 11.3107 -3.28429C11.7801 -3.44773 12.1378 -3.54472 12.2292 -3.56926C12.2468 -3.57399 12.2547 -3.576 12.2256 -3.56837C12.2157 -3.56578 12.1292 -3.54309 12.0481 -3.52145C11.9899 -3.50591 11.3599 -3.34165 10.6217 -3.09428L17.4002 17.1335ZM11.9485 16.1527C-4.69401 2.80583 -4.69385 2.80564 -4.6937 2.80545C-4.69366 2.8054 -4.69352 2.80523 -4.69344 2.80513C-4.69328 2.80493 -4.69315 2.80476 -4.69305 2.80464C-4.69284 2.80438 -4.69275 2.80427 -4.69278 2.80431C-4.69283 2.80437 -4.69334 2.805 -4.69428 2.80618C-4.69618 2.80854 -4.69983 2.81309 -4.70515 2.81972C-4.7158 2.83297 -4.73306 2.85444 -4.75613 2.88311C-4.80238 2.94057 -4.87142 3.02624 -4.95702 3.1321C-5.13012 3.34618 -5.36177 3.63155 -5.60464 3.92766C-6.37582 4.86788 -6.418 4.88201 -6.01086 4.45821L9.3735 19.2377L24.7579 34.0171C25.7758 32.9575 27.0211 31.4291 27.3848 30.9858C27.7093 30.5902 28.0068 30.2235 28.2211 29.9585C28.3292 29.8248 28.4184 29.7142 28.4819 29.6352C28.5138 29.5957 28.5393 29.5639 28.5577 29.541C28.5669 29.5295 28.5744 29.5202 28.58 29.5133C28.5828 29.5098 28.5851 29.5069 28.5869 29.5046C28.5878 29.5035 28.5886 29.5025 28.5893 29.5016C28.5897 29.5012 28.59 29.5008 28.5903 29.5005C28.5904 29.5003 28.5906 29.5 28.5906 29.5C28.5908 29.4997 28.591 29.4995 11.9485 16.1527ZM9.3735 19.2377L-5.95668 4.40202C-4.68796 3.09101 -2.4769 1.15383 0.812468 -0.257414C4.12793 -1.67985 10.021 -3.11381 16.6774 -0.580544C23.5724 2.04357 27.1551 7.33851 28.7131 11.1137C30.1653 14.6324 30.3026 17.6727 30.2903 19.1886L8.95766 19.0152L-12.375 18.8417C-12.389 20.5627 -12.2255 23.7591 -10.7269 27.3903C-9.12253 31.2779 -5.47316 36.6416 1.50128 39.2959C8.23702 41.8594 14.2222 40.4171 17.6349 38.9529C21.0215 37.5 23.335 35.4877 24.7037 34.0733L9.3735 19.2377ZM8.95766 19.0152H30.291C30.291 19.0299 30.291 18.9966 30.2915 18.8737C30.2919 18.7698 30.2924 18.6322 30.2931 18.4706C30.2945 18.1481 30.2964 17.7412 30.2983 17.3405C30.3001 16.9403 30.302 16.5482 30.3034 16.2561C30.3041 16.11 30.3047 15.989 30.3051 15.9046C30.3053 15.8624 30.3055 15.8293 30.3056 15.8068C30.3056 15.7956 30.3057 15.787 30.3057 15.7812C30.3057 15.7783 30.3057 15.7761 30.3057 15.7746C30.3057 15.7739 30.3057 15.7734 30.3057 15.773C30.3057 15.7728 30.3057 15.7727 30.3057 15.7726C30.3057 15.7726 30.3057 15.7725 30.3057 15.7725C30.3057 15.7725 30.3057 15.7725 8.97266 15.6685C-12.3604 15.5645 -12.3604 15.5645 -12.3604 15.5646C-12.3604 15.5646 -12.3604 15.5646 -12.3604 15.5647C-12.3604 15.5648 -12.3604 15.5649 -12.3604 15.5651C-12.3604 15.5655 -12.3604 15.5661 -12.3604 15.5668C-12.3604 15.5683 -12.3604 15.5706 -12.3605 15.5735C-12.3605 15.5794 -12.3605 15.5881 -12.3606 15.5995C-12.3607 15.6222 -12.3609 15.6555 -12.3611 15.6979C-12.3615 15.7829 -12.3621 15.9044 -12.3628 16.0511C-12.3642 16.3444 -12.3661 16.7385 -12.3679 17.1413C-12.3715 17.8976 -12.3757 18.815 -12.3757 19.0152H8.95766ZM8.97266 15.6685L14.8498 -4.8393C17.5549 -4.06406 20.3699 -2.45084 22.6545 0.0915422C24.8017 2.48114 25.777 4.90277 26.2177 6.4234C26.6421 7.88782 26.6967 8.9463 26.7078 9.18518C26.7157 9.35488 26.7088 9.5708 26.7262 8.66603L5.39683 8.25601L-15.9326 7.84599C-15.9345 7.94617 -16.2685 13.1043 -14.7626 18.3005C-12.8226 24.9942 -7.50659 33.138 3.09551 36.1763L8.97266 15.6685ZM5.39683 8.25601L26.7262 8.66587C26.7255 8.70134 26.7201 8.9499 26.6694 9.35519C26.6188 9.75958 26.5105 10.4234 26.2675 11.2616C25.7631 13.0015 24.6381 15.5985 22.2539 18.0353L7.00516 3.11601L-8.24359 -11.8033C-15.3092 -4.58176 -15.8635 4.25038 -15.9326 7.84614L5.39683 8.25601ZM7.00516 3.11601L21.597 18.6784C18.5653 21.521 15.6148 22.3065 14.8457 22.4943C13.7962 22.7506 13.1541 22.745 12.9612 22.7408C12.7548 22.7364 12.2875 22.7152 11.4915 22.5064C11.0812 22.3988 10.3088 22.1694 9.31338 21.7079C8.42705 21.2971 6.60046 20.3543 4.64822 18.5195L19.2585 2.97434L33.8688 -12.5708C29.4793 -16.6963 24.4796 -18.1967 22.3186 -18.7637C19.4649 -19.5123 16.5617 -19.8587 13.8719 -19.9161C11.1955 -19.9733 8.02247 -19.7597 4.7256 -18.9548C1.70907 -18.2183 -3.20543 -16.5544 -7.5867 -12.4464L7.00516 3.11601ZM19.2585 2.97434L5.10665 18.9379C1.5898 15.8202 0.405057 12.3978 0.0493758 11.2017C-0.357923 9.832 -0.391925 8.9276 -0.396014 8.84333C-0.40524 8.65322 -0.395727 8.61155 -0.402752 8.71651C-0.40472 8.74591 -0.407457 8.77938 -0.413356 8.8404C-0.415148 8.85894 -0.417126 8.87902 -0.420445 8.91247C-0.42244 8.93257 -0.429354 9.00194 -0.435382 9.06431C-0.439716 9.10915 -0.456279 9.27966 -0.472612 9.484C-0.480731 9.58557 -0.496704 9.79261 -0.510768 10.0524C-0.51848 10.1948 -0.557277 10.8776 -0.535837 11.7459L20.791 11.2193L42.1178 10.6928C42.1391 11.5547 42.1006 12.2284 42.0935 12.359C42.0801 12.6069 42.0651 12.7994 42.0584 12.8837C42.0505 12.9822 42.0437 13.0577 42.0404 13.0937C42.0369 13.133 42.0342 13.1607 42.0334 13.1686C42.0327 13.1759 42.0323 13.1801 42.0377 13.1255C42.0418 13.0843 42.0481 13.0203 42.0553 12.9459C42.0854 12.6351 42.1292 12.1549 42.1687 11.5661C42.2444 10.4346 42.3158 8.73859 42.2205 6.77535C42.1304 4.91796 41.8624 2.12169 40.9462 -0.95943C40.0816 -3.86696 38.113 -8.82029 33.4103 -12.9893L19.2585 2.97434ZM20.791 11.2193L-0.390315 8.67706C-0.215906 7.22396 0.295962 5.15642 1.58871 2.9231C2.90657 0.646391 4.67852 -1.18302 6.5954 -2.53015C8.4308 -3.82002 10.1237 -4.47739 11.1663 -4.81076C11.6815 -4.97551 12.0744 -5.07106 12.1344 -5.08574C12.3261 -5.1326 11.9371 -5.03784 11.8571 -5.01785C11.7487 -4.99079 11.0288 -4.81485 10.1652 -4.52742L16.9018 15.7143L23.6384 35.9561C19.2949 37.4017 26.8801 35.3635 31.128 32.3782C37.28 28.0548 41.0604 21.3595 41.9723 13.7616L20.791 11.2193ZM16.9018 15.7143L10.1781 -4.53169C10.5976 -4.67103 10.9208 -4.7631 11.0359 -4.79565C11.1986 -4.84161 11.3315 -4.87675 11.4281 -4.90154C11.623 -4.95158 11.7758 -4.98664 11.8864 -5.01061C12.1087 -5.05875 12.2729 -5.08634 12.3971 -5.10356C12.6051 -5.1324 12.9176 -5.16347 13.3707 -5.1332L11.9485 16.1527L10.5263 37.4386C16.2195 37.8189 21.0835 36.8046 23.6256 35.9604L16.9018 15.7143ZM11.9485 16.1527" fill="white" mask="url(#path-1-inside-1_35_682)"/>
<path d="M17.5962 9.03131L17.5972 9.03229V9.03424L18.0835 9.02838M17.5962 9.03131L18.0835 9.02838M17.5962 9.03131L18.0835 9.02838M17.5962 9.03131C17.5731 5.84969 15.5235 4.11493 13.0347 4.09576L13.0405 3.59186C15.7343 3.61291 17.9165 5.47908 18.0747 8.711L18.0835 9.02838M13.0386 3.59186L13.0347 4.04791V3.59186C13.0358 3.59187 13.0374 3.59185 13.0386 3.59186Z" fill="white" stroke="white" stroke-width="21.3333"/>
<path d="M16.3088 8.50513L16.7961 8.51587M16.3088 8.50513C16.3018 8.81614 16.7331 8.84942 16.7903 8.57544L16.7971 8.51685L16.7961 8.51587M16.3088 8.50513L16.7961 8.51587M16.3088 8.50513C16.3472 6.84932 15.3465 5.55261 13.4465 5.40845C13.1269 5.38486 13.1602 4.88148 13.4807 4.90454H13.4846C15.6727 5.07014 16.8365 6.62652 16.7961 8.51587" fill="white" stroke="white" stroke-width="21.3333"/>
<path d="M16.2854 12.1158L16.3665 12.1597C16.3688 12.1572 16.3709 12.1544 16.3733 12.1519L16.676 11.2447C16.6385 11.2171 16.5995 11.1916 16.5618 11.1646M16.2854 12.1158L16.5618 11.1646M16.2854 12.1158L16.5618 11.1646M16.2854 12.1158L15.2629 11.5542L15.7844 10.6558M16.5618 11.1646C16.2949 10.9741 16.026 10.7969 15.7844 10.6558M15.7844 10.6558C15.3728 10.4175 14.9539 10.5662 14.7805 10.8003L14.5403 11.1089L14.6145 11.1988L15.26 11.5523L15.7844 10.6558ZM9.34692 8.30032L9.33618 8.3013L9.34692 8.30716V8.30032ZM9.34692 8.30032C9.34302 8.30066 9.33911 8.30096 9.33521 8.3013L8.85474 8.03763C8.80898 7.94215 8.76641 7.84833 8.72485 7.75735L9.34692 7.41263V8.30032ZM8.81958 6.94388C8.71197 7.08761 8.61867 7.22118 8.54028 7.34329C8.59337 7.46661 8.65164 7.59579 8.71313 7.73099L9.34692 7.38821V7.3511L8.81958 6.94388ZM8.81958 6.94388L9.34692 7.35013V6.77786L9.09888 6.59525C8.99597 6.71615 8.90292 6.83256 8.81958 6.94388ZM11.4973 6.22318C11.728 6.64894 11.5853 7.08227 11.3586 7.26224L11.179 7.4097L10.7327 6.64603L11.4973 6.22318ZM11.4973 6.22318C11.3113 5.88704 11.1426 5.61785 10.9934 5.397L10.1545 5.65775L10.7288 6.63919L11.4973 6.22318ZM15.2327 12.8687L15.3831 13.0493C15.1311 13.2383 14.9091 13.3807 14.7327 13.4839L14.4377 12.98L14.5032 12.8687H15.2327ZM15.6135 12.8687C15.5372 12.931 15.463 12.9893 15.3909 13.0435L15.2454 12.8687H15.6135ZM14.4915 12.8687L14.4319 12.9702L14.3723 12.8687H14.4915ZM9.34692 8.53079C9.28135 8.54755 9.21623 8.56408 9.15161 8.5806V8.57962L9.34692 8.52982V8.53079ZM9.34692 6.60208L9.19263 6.48392C9.24115 6.42914 9.29417 6.37593 9.34692 6.31985V6.60208Z" fill="white" stroke="white" stroke-width="21.3333"/>
<path d="M13.854 6.26062C14.9054 6.32002 15.4892 6.94475 15.5425 8.06531C15.5564 8.38003 15.1289 8.42021 15.063 8.14734L15.0552 8.08875L15.0542 8.08777L15.4927 8.06726L15.0542 8.08679C15.0147 7.28234 14.6716 6.86462 13.9692 6.77722L13.8247 6.76453M13.854 6.26062L13.8247 6.76453M13.854 6.26062L13.8296 6.67468L13.8247 6.76453M13.854 6.26062H13.8511C13.5302 6.24145 13.5005 6.74536 13.8247 6.76453" fill="white" stroke="white" stroke-width="21.3333"/>
</g>
<defs>
<filter id="filter0_d_35_682" x="0" y="0" width="26.3333" height="28.0176" filterUnits="userSpaceOnUse" color-interpolation-filters="sRGB">
<feFlood flood-opacity="0" result="BackgroundImageFix"/>
<feColorMatrix in="SourceAlpha" type="matrix" values="0 0 0 0 0 0 0 0 0 0 0 0 0 0 0 0 0 0 127 0" result="hardAlpha"/>
<feOffset dy="4"/>
<feGaussianBlur stdDeviation="2"/>
<feComposite in2="hardAlpha" operator="out"/>
<feColorMatrix type="matrix" values="0 0 0 0 0 0 0 0 0 0 0 0 0 0 0 0 0 0 0.25 0"/>
<feBlend mode="normal" in2="BackgroundImageFix" result="effect1_dropShadow_35_682"/>
<feBlend mode="normal" in="SourceGraphic" in2="effect1_dropShadow_35_682" result="shape"/>
</filter>
</defs>
</svg>
