<svg width="20" height="20" viewBox="0 0 20 20" fill="none" xmlns="http://www.w3.org/2000/svg">
<path d="M11.668 14.486L11.6875 14.4909C12.1682 14.1914 12.6269 13.8478 13.0557 13.4606L12.8799 12.3542L12.5186 12.0065L11.668 14.486ZM11.668 14.486C11.5212 14.4356 11.3797 14.383 11.2412 14.3337M11.668 14.486L11.8174 14.0143M11.2412 14.3337L11.8174 14.0143M11.2412 14.3337L11.8174 14.0143M11.2412 14.3337C10.8933 14.2099 10.569 14.0888 10.2598 13.9548M11.8174 14.0143L12.4707 11.9597L12.1992 11.6999L12.0332 11.6794C11.8411 11.9161 11.6238 12.1715 11.5342 12.2741C11.3884 12.4366 11.2436 12.4491 10.9961 12.3366M10.2598 13.9548L10.9961 12.3366M10.2598 13.9548C10.2395 13.946 10.2193 13.9373 10.1992 13.9284M10.2598 13.9548L10.9961 12.3366M10.9961 12.3366L10.1992 13.9284M10.9961 12.3366C10.7728 12.2249 10.1095 12.0023 9.29297 11.3503L8.81836 11.2936M10.9961 12.3366L10.1992 13.9284M10.1992 13.9284C9.38231 13.5681 8.66304 13.1235 7.86133 12.362M8.81836 11.2936L7.86133 12.362M8.81836 11.2936L6.64062 11.0319C7.07978 11.5633 7.47926 11.9991 7.86133 12.362M8.81836 11.2936L7.86133 12.362M5.99805 10.2243L6.02441 10.2585C6.21738 10.5103 6.40413 10.7434 6.58301 10.9616L9.20508 11.277C9.13616 11.2201 9.06389 11.1626 8.99316 11.0993C8.25364 10.4372 7.75729 9.62513 7.61035 9.37469C7.55247 9.27474 7.53741 9.19486 7.55371 9.11981L5.99805 10.2243ZM5.99805 10.2243L6.60547 9.75848M5.99805 10.2243C5.72226 9.83569 5.4938 9.45212 5.32324 9.07391L6.72656 8.37274M6.60547 9.75848L6.72656 8.37274M6.60547 9.75848L7.60938 8.99188C7.62817 8.96321 7.65203 8.93484 7.67773 8.90399L6.94434 8.26337L6.72656 8.37274M6.60547 9.75848L6.72656 8.37274M6.75 8.09442L6.72656 8.36688M6.75 8.09442L6.06738 7.49677C5.7949 7.88415 5.50812 8.3485 5.24805 8.8952C5.27094 8.95202 5.29471 9.00907 5.32031 9.0661L6.72656 8.36688M6.75 8.09442L6.72656 8.36688M6.75 8.09442L6.94141 8.26044L6.72656 8.36688M8.3418 8.01239L8.25391 8.16864C8.18768 8.27938 8.11944 8.37354 8.05566 8.4577L7.41406 8.02899L7.88379 7.79364L8.3418 8.01239ZM8.3418 8.01239C8.34421 8.00731 8.34545 8.00179 8.34766 7.99677L8.0498 7.71063L7.90723 7.78192L8.3418 8.01239ZM8.32129 7.57587C8.36885 7.67164 8.40409 7.7754 8.37988 7.89813L8.12988 7.67059L8.32129 7.57587ZM8.32129 7.57587C8.26208 7.45745 7.81122 6.35226 7.58691 5.82098C7.40142 5.97818 7.20346 6.16041 6.99902 6.36981C6.96468 6.40499 6.92802 6.44335 6.88965 6.48407M8.32129 7.57587L8.12891 7.67059L6.88477 6.53876M6.88477 6.53876L6.88965 6.48407M6.88477 6.53876L6.86035 6.5163C6.8704 6.50553 6.87984 6.49448 6.88965 6.48407M6.88477 6.53876L6.88965 6.48407M12.918 12.3903L13.543 12.9909C13.3905 13.1496 13.2318 13.3005 13.0703 13.447L12.918 12.3903ZM12.8301 11.7751L14.3711 11.9606C14.1518 12.2935 13.9347 12.5664 13.7422 12.778L12.8584 11.9733L12.8301 11.7751ZM12.7871 11.7702L12.8135 11.9323L12.6113 11.7487L12.7871 11.7702ZM12.8096 11.1579C13.0928 11.2415 13.5594 11.4765 14.4102 11.9011V11.902L12.8203 11.7106L12.7617 11.2995L12.8096 11.1579ZM12.7285 11.3962L12.7773 11.7057L12.6279 11.6872L12.7285 11.3962ZM12.3213 11.3063C12.415 11.1657 12.5011 11.101 12.6855 11.1296L12.7021 11.2311L12.5596 11.6794L12.5312 11.6765L12.2412 11.4128L12.3213 11.3063ZM12.124 11.6276L12.0801 11.6218C12.0856 11.6149 12.0912 11.6081 12.0967 11.6013L12.124 11.6276ZM8.05273 8.46063C7.92585 8.62765 7.81065 8.75042 7.7207 8.85223L7.02246 8.2243L7.40918 8.03094L8.05273 8.46063ZM6.24219 7.2536L7.40625 8.02997L7.01855 8.22235L6.12402 7.41864C6.16447 7.36238 6.2025 7.30637 6.24219 7.2536ZM6.37988 7.07782L7.88184 7.79364L7.41113 8.02704L6.24512 7.24872C6.29006 7.18905 6.33624 7.13303 6.37988 7.07782ZM6.83496 6.54266L8.04883 7.71063L7.90527 7.78192L6.43652 7.00555C6.58102 6.82648 6.71543 6.67182 6.83496 6.54266Z" fill="white" stroke="white" stroke-width="21.3333"/>
<mask id="path-2-inside-1_35_688" fill="white">
<path d="M17.1 2.87452C10.6925 -3.31964 0.0883333 1.17286 0.0841667 9.91119C0.0841667 11.6579 0.541667 13.3612 1.41333 14.8653L0 20.0003L5.27917 18.6237C11.8667 22.182 19.9967 17.457 20 9.91619C20 7.26952 18.9667 4.77869 17.0875 2.90702L17.1 2.87452ZM18.335 9.88869C18.33 16.2495 11.3475 20.222 5.825 16.9753L5.525 16.797L2.4 17.6095L3.2375 14.572L3.03833 14.2595C-0.398333 8.78869 3.55 1.63869 10.06 1.63869C12.2717 1.63869 14.3475 2.50119 15.9108 4.06369C17.4733 5.61286 18.335 7.68869 18.335 9.88869V9.88869Z"/>
</mask>
<path d="M17.1 2.87452C10.6925 -3.31964 0.0883333 1.17286 0.0841667 9.91119C0.0841667 11.6579 0.541667 13.3612 1.41333 14.8653L0 20.0003L5.27917 18.6237C11.8667 22.182 19.9967 17.457 20 9.91619C20 7.26952 18.9667 4.77869 17.0875 2.90702L17.1 2.87452ZM18.335 9.88869C18.33 16.2495 11.3475 20.222 5.825 16.9753L5.525 16.797L2.4 17.6095L3.2375 14.572L3.03833 14.2595C-0.398333 8.78869 3.55 1.63869 10.06 1.63869C12.2717 1.63869 14.3475 2.50119 15.9108 4.06369C17.4733 5.61286 18.335 7.68869 18.335 9.88869V9.88869Z" fill="white"/>
<path d="M17.1 2.87452L37.0112 10.5333L42.0813 -2.64785L31.9274 -12.4636L17.1 2.87452ZM0.0841667 9.91119L-21.2492 9.90101V9.91119H0.0841667ZM1.41333 14.8653L21.9818 20.5265L24.3546 11.9054L19.8713 4.16891L1.41333 14.8653ZM0 20.0003L-20.5685 14.3392L-30.3748 49.9681L5.38314 40.6433L0 20.0003ZM5.27917 18.6237L15.4181 -0.14635L8.02586 -4.13935L-0.103974 -2.01931L5.27917 18.6237ZM20 9.91619L41.3333 9.92562V9.91619H20ZM17.0875 2.90702L-2.82365 -4.75177L-7.81196 8.2167L2.03275 18.0221L17.0875 2.90702ZM18.335 9.88869M5.825 16.9753L-5.07594 35.3133L-5.03144 35.3398L-4.98681 35.366L5.825 16.9753ZM5.525 16.797L16.4259 -1.54095L8.77315 -6.09011L0.156813 -3.84987L5.525 16.797ZM2.4 17.6095L-18.1659 11.9391L-27.9852 47.5523L7.76819 38.2564L2.4 17.6095ZM3.2375 14.572L23.8034 20.2425L26.3236 11.102L21.2277 3.10625L3.2375 14.572ZM3.03833 14.2595L-15.0264 25.6074L-14.9893 25.6665L-14.9519 25.7253L3.03833 14.2595ZM15.9108 4.06369L0.829916 19.1527L0.860233 19.183L0.89067 19.2131L15.9108 4.06369ZM18.335 9.88869M17.1 2.87452L31.9274 -12.4636C12.2712 -31.4654 -21.2358 -18.0641 -21.2492 9.90101L0.0841667 9.91119L21.4175 9.92136C21.4125 20.4098 9.11377 24.8261 2.27256 18.2127L17.1 2.87452ZM0.0841667 9.91119H-21.2492C-21.2492 15.4021 -19.8059 20.7969 -17.0447 25.5618L1.41333 14.8653L19.8713 4.16891C20.8892 5.92544 21.4175 7.91362 21.4175 9.91119H0.0841667ZM1.41333 14.8653L-19.1551 9.20417L-20.5685 14.3392L0 20.0003L20.5685 25.6615L21.9818 20.5265L1.41333 14.8653ZM0 20.0003L5.38314 40.6433L10.6623 39.2667L5.27917 18.6237L-0.103974 -2.01931L-5.38314 -0.642643L0 20.0003ZM5.27917 18.6237L-4.85973 37.3937C15.6383 48.466 41.3227 33.9563 41.3333 9.92562L20 9.91619L-1.33333 9.90676C-1.32938 0.957754 8.09501 -4.102 15.4181 -0.14635L5.27917 18.6237ZM20 9.91619H41.3333C41.3333 1.59768 38.0413 -6.33256 32.1422 -12.2081L17.0875 2.90702L2.03275 18.0221C-0.107963 15.8899 -1.33333 12.9414 -1.33333 9.91619H20ZM17.0875 2.90702L36.9986 10.5658L37.0112 10.5333L17.1 2.87452L-2.81115 -4.78427L-2.82365 -4.75177L17.0875 2.90702ZM18.335 9.88869L-2.99833 9.87192C-2.99022 -0.43988 8.10219 -6.43278 16.6368 -1.4153L5.825 16.9753L-4.98681 35.366C14.5928 46.8768 39.6502 32.9389 39.6683 9.90545L18.335 9.88869ZM5.825 16.9753L16.7259 -1.36261L16.4259 -1.54095L5.525 16.797L-5.37594 35.135L-5.07594 35.3133L5.825 16.9753ZM5.525 16.797L0.156813 -3.84987L-2.96819 -3.03737L2.4 17.6095L7.76819 38.2564L10.8932 37.4439L5.525 16.797ZM2.4 17.6095L22.9659 23.28L23.8034 20.2425L3.2375 14.572L-17.3284 8.90157L-18.1659 11.9391L2.4 17.6095ZM3.2375 14.572L21.2277 3.10625L21.0285 2.79375L3.03833 14.2595L-14.9519 25.7253L-14.7527 26.0378L3.2375 14.572ZM3.03833 14.2595L21.1031 2.91159C26.6414 11.7281 20.2332 22.972 10.06 22.972V1.63869V-19.6946C-13.1332 -19.6946 -27.4381 5.84932 -15.0264 25.6074L3.03833 14.2595ZM10.06 1.63869V22.972C6.59779 22.972 3.25435 21.5758 0.829916 19.1527L15.9108 4.06369L30.9918 -11.0253C25.4406 -16.5734 17.9455 -19.6946 10.06 -19.6946V1.63869ZM15.9108 4.06369L0.89067 19.2131C-1.60289 16.7409 -2.99833 13.3562 -2.99833 9.88869H18.335H39.6683C39.6683 2.02116 36.5496 -5.51515 30.931 -11.0858L15.9108 4.06369ZM18.335 9.88869" fill="white" mask="url(#path-2-inside-1_35_688)"/>
</svg>
